<svg width="20" height="20" viewBox="0 0 20 20" fill="none" xmlns="http://www.w3.org/2000/svg">
<path d="M10.0007 6.11769C9.33901 6.11769 8.69216 6.31606 8.14196 6.68772C7.59177 7.05937 7.16294 7.58762 6.90972 8.20566C6.65649 8.82371 6.59024 9.50378 6.71933 10.1599C6.84842 10.816 7.16707 11.4187 7.63497 11.8917C8.10287 12.3647 8.69902 12.6869 9.34802 12.8174C9.99701 12.9479 10.6697 12.8809 11.2811 12.6249C11.8924 12.3689 12.4149 11.9354 12.7826 11.3792C13.1502 10.8229 13.3464 10.169 13.3464 9.50003C13.3453 8.60334 12.9924 7.7437 12.3652 7.10964C11.738 6.47559 10.8877 6.11886 10.0007 6.11769ZM10.0007 12C9.51163 12 9.03352 11.8534 8.62686 11.5787C8.22019 11.304 7.90324 10.9135 7.71607 10.4567C7.5289 9.99992 7.47993 9.49726 7.57535 9.0123C7.67076 8.52735 7.90628 8.0819 8.25212 7.73227C8.59796 7.38264 9.03859 7.14454 9.51829 7.04808C9.99798 6.95161 10.4952 7.00112 10.9471 7.19034C11.3989 7.37956 11.7851 7.69999 12.0569 8.11111C12.3286 8.52223 12.4736 9.00558 12.4736 9.50003C12.4736 10.1631 12.2131 10.7989 11.7493 11.2678C11.2856 11.7366 10.6566 12 10.0007 12ZM17.8558 8.00004C17.8432 7.93855 17.8177 7.88051 17.781 7.82979C17.7444 7.77907 17.6975 7.73684 17.6434 7.70592L15.4295 6.42798L15.3989 6.37578L15.3902 3.85299C15.3902 3.78927 15.3765 3.7263 15.3502 3.66842C15.3238 3.61054 15.2853 3.55912 15.2374 3.5177C14.4642 2.85673 13.574 2.34999 12.614 2.02433C12.5563 2.00471 12.4951 1.99752 12.4345 2.00322C12.3739 2.00892 12.3151 2.02738 12.262 2.05741L10.0342 3.31329H9.96145L7.73948 2.05594C7.68609 2.02582 7.62704 2.00737 7.56614 2.0018C7.50525 1.99622 7.44388 2.00365 7.386 2.02359C6.42609 2.3502 5.53631 2.85823 4.76401 3.52064C4.71593 3.56184 4.67726 3.61308 4.65064 3.67084C4.62402 3.72859 4.61009 3.79149 4.60981 3.8552L4.59818 6.38019C4.58799 6.3971 4.57781 6.41475 4.56836 6.43239L2.3573 7.70371C2.30296 7.7351 2.25594 7.77794 2.21942 7.82933C2.1829 7.88071 2.15774 7.93943 2.14565 8.00151C1.95145 8.99137 1.95145 10.0102 2.14565 11C2.1583 11.0615 2.18379 11.1195 2.22042 11.1703C2.25704 11.221 2.30396 11.2632 2.35802 11.2941L4.57054 12.5684L4.60109 12.6206L4.60981 15.1434C4.60946 15.2078 4.62308 15.2716 4.64972 15.3302C4.67636 15.3887 4.71537 15.4407 4.76401 15.4824C5.53725 16.1433 6.42746 16.6501 7.38746 16.9757C7.44517 16.9953 7.50631 17.0025 7.56693 16.9968C7.62756 16.9911 7.68633 16.9727 7.73948 16.9426L9.96581 15.6868H10.0385L12.2612 16.9441C12.3263 16.9805 12.3993 16.9997 12.4736 17C12.5214 17.0002 12.5688 16.9922 12.614 16.9765C13.5726 16.6494 14.4611 16.1414 15.2324 15.4794C15.2804 15.4382 15.3191 15.387 15.3457 15.3292C15.3723 15.2715 15.3863 15.2086 15.3865 15.1449L15.3982 12.6199C15.4084 12.603 15.4185 12.5853 15.428 12.5677L17.6405 11.2963C17.695 11.265 17.7422 11.2222 17.7788 11.1708C17.8155 11.1195 17.8407 11.0607 17.8529 10.9986C18.0481 10.0089 18.049 8.99009 17.8558 8.00004ZM17.0376 10.6316L14.8971 11.8603C14.8277 11.9005 14.7703 11.9589 14.7312 12.0294C14.6883 12.103 14.6432 12.1846 14.5959 12.2603C14.5529 12.33 14.53 12.4105 14.5298 12.4927L14.5181 14.9346C13.9163 15.422 13.2404 15.8076 12.5165 16.0765L10.3644 14.8588C10.2993 14.8218 10.2259 14.8023 10.1513 14.8022H10.1411C10.0509 14.8022 9.95927 14.8022 9.86908 14.8022C9.79105 14.8003 9.71394 14.8196 9.64579 14.8581L7.48783 16.0757C6.76309 15.8083 6.08612 15.4236 5.48333 14.9368L5.4746 12.4978C5.47437 12.4156 5.45145 12.3352 5.40841 12.2655C5.36186 12.1919 5.31604 12.1125 5.27313 12.0346C5.23443 11.964 5.17733 11.9055 5.10803 11.8655L2.96752 10.6324C2.84309 9.88296 2.84309 9.11783 2.96752 8.36842L5.10439 7.13975C5.17487 7.10002 5.23323 7.04153 5.27313 6.97063C5.31604 6.8971 5.36114 6.81548 5.40841 6.73975C5.45145 6.67004 5.47437 6.58957 5.4746 6.50739L5.48624 4.06549C6.08716 3.57834 6.76212 3.19272 7.48492 2.92359L9.63706 4.14123C9.70495 4.18037 9.78224 4.19972 9.86035 4.19711C9.95054 4.19711 10.0422 4.19711 10.1324 4.19711C10.2104 4.19901 10.2875 4.17971 10.3557 4.14123L12.5122 2.92359C13.2369 3.19107 13.9139 3.57573 14.5167 4.06255L14.5254 6.50151C14.5256 6.58368 14.5485 6.66416 14.5916 6.73386C14.6381 6.80739 14.684 6.8868 14.7269 6.96475C14.7656 7.03532 14.8227 7.09382 14.892 7.13386L17.0339 8.36768C17.1591 9.11697 17.1598 9.88211 17.0361 10.6316H17.0376Z" fill="white"/>
</svg>
